<svg width="18" height="16" viewBox="0 0 18 16" fill="none" xmlns="http://www.w3.org/2000/svg">
<path d="M3.87397 15.625C3.51772 15.625 3.20105 15.5161 2.92397 15.2984C2.64688 15.0807 2.45556 14.8003 2.35001 14.4573L0.331257 7.13438C0.265285 6.88368 0.308167 6.65278 0.459903 6.44167C0.611639 6.23056 0.819451 6.125 1.08334 6.125H4.84376L8.32709 0.939586C8.39306 0.83403 8.48542 0.748266 8.60417 0.682294C8.72292 0.616322 8.84827 0.583336 8.98022 0.583336C9.11216 0.583336 9.23751 0.616322 9.35626 0.682294C9.47501 0.748266 9.56737 0.83403 9.63334 0.939586L13.1167 6.125H16.9167C17.1806 6.125 17.3884 6.23056 17.5401 6.44167C17.6918 6.65278 17.7347 6.88368 17.6688 7.13438L15.65 14.4573C15.5445 14.8003 15.3531 15.0807 15.076 15.2984C14.799 15.5161 14.4823 15.625 14.126 15.625H3.87397ZM3.85417 14.0417H14.1458L15.8875 7.70834H2.11251L3.85417 14.0417ZM9.00001 12.4583C9.43542 12.4583 9.80817 12.3033 10.1182 11.9932C10.4283 11.6832 10.5833 11.3104 10.5833 10.875C10.5833 10.4396 10.4283 10.0668 10.1182 9.75677C9.80817 9.4467 9.43542 9.29167 9.00001 9.29167C8.56459 9.29167 8.19185 9.4467 7.88178 9.75677C7.57171 10.0668 7.41667 10.4396 7.41667 10.875C7.41667 11.3104 7.57171 11.6832 7.88178 11.9932C8.19185 12.3033 8.56459 12.4583 9.00001 12.4583ZM6.76355 6.125H11.2167L8.98022 2.8L6.76355 6.125Z" fill="#424242"/>
</svg>
