<svg width="14" height="13" viewBox="0 0 14 13" fill="none" xmlns="http://www.w3.org/2000/svg">
<path d="M6.99984 6.5C6.129 6.5 5.38352 6.18993 4.76338 5.56979C4.14324 4.94965 3.83317 4.20417 3.83317 3.33333C3.83317 2.4625 4.14324 1.71702 4.76338 1.09688C5.38352 0.476737 6.129 0.166668 6.99984 0.166668C7.87067 0.166668 8.61616 0.476737 9.2363 1.09688C9.85643 1.71702 10.1665 2.4625 10.1665 3.33333C10.1665 4.20417 9.85643 4.94965 9.2363 5.56979C8.61616 6.18993 7.87067 6.5 6.99984 6.5ZM0.666504 12.8333V10.6167C0.666504 10.1681 0.781955 9.75573 1.01286 9.37969C1.24376 9.00365 1.55053 8.71667 1.93317 8.51875C2.75123 8.10972 3.58248 7.80295 4.42692 7.59844C5.27136 7.39392 6.129 7.29167 6.99984 7.29167C7.87067 7.29167 8.72831 7.39392 9.57275 7.59844C10.4172 7.80295 11.2484 8.10972 12.0665 8.51875C12.4491 8.71667 12.7559 9.00365 12.9868 9.37969C13.2177 9.75573 13.3332 10.1681 13.3332 10.6167V12.8333H0.666504ZM2.24984 11.25H11.7498V10.6167C11.7498 10.4715 11.7136 10.3396 11.641 10.2208C11.5684 10.1021 11.4728 10.0097 11.354 9.94375C10.6415 9.5875 9.92241 9.32031 9.19671 9.14219C8.47102 8.96406 7.73873 8.875 6.99984 8.875C6.26095 8.875 5.52866 8.96406 4.80296 9.14219C4.07727 9.32031 3.35817 9.5875 2.64567 9.94375C2.52692 10.0097 2.43126 10.1021 2.35869 10.2208C2.28612 10.3396 2.24984 10.4715 2.24984 10.6167V11.25ZM6.99984 4.91667C7.43525 4.91667 7.808 4.76163 8.11807 4.45156C8.42814 4.14149 8.58317 3.76875 8.58317 3.33333C8.58317 2.89792 8.42814 2.52517 8.11807 2.21511C7.808 1.90504 7.43525 1.75 6.99984 1.75C6.56442 1.75 6.19168 1.90504 5.88161 2.21511C5.57154 2.52517 5.4165 2.89792 5.4165 3.33333C5.4165 3.76875 5.57154 4.14149 5.88161 4.45156C6.19168 4.76163 6.56442 4.91667 6.99984 4.91667Z" fill="#424242"/>
</svg>
