<svg width="16" height="15" viewBox="0 0 16 15" fill="none" xmlns="http://www.w3.org/2000/svg">
<path d="M14.0167 14.625L9.02917 9.6375C8.63333 9.95417 8.17812 10.2049 7.66354 10.3896C7.14896 10.5743 6.60139 10.6667 6.02083 10.6667C4.58264 10.6667 3.36545 10.1686 2.36927 9.1724C1.37309 8.17622 0.875 6.95903 0.875 5.52083C0.875 4.08264 1.37309 2.86545 2.36927 1.86927C3.36545 0.87309 4.58264 0.375 6.02083 0.375C7.45903 0.375 8.67622 0.87309 9.6724 1.86927C10.6686 2.86545 11.1667 4.08264 11.1667 5.52083C11.1667 6.10139 11.0743 6.64896 10.8896 7.16354C10.7049 7.67812 10.4542 8.13333 10.1375 8.52917L15.125 13.5167L14.0167 14.625ZM6.02083 9.08333C7.01042 9.08333 7.85156 8.73698 8.54427 8.04427C9.23698 7.35156 9.58333 6.51042 9.58333 5.52083C9.58333 4.53125 9.23698 3.6901 8.54427 2.9974C7.85156 2.30469 7.01042 1.95833 6.02083 1.95833C5.03125 1.95833 4.1901 2.30469 3.4974 2.9974C2.80469 3.6901 2.45833 4.53125 2.45833 5.52083C2.45833 6.51042 2.80469 7.35156 3.4974 8.04427C4.1901 8.73698 5.03125 9.08333 6.02083 9.08333Z" fill="#424242"/>
</svg>
